<svg width="878" height="492" viewBox="0 0 878 492" fill="none" xmlns="http://www.w3.org/2000/svg">
<path d="M223.146 154.009C251.182 154.009 273.909 131.282 273.909 103.247C273.909 75.2111 251.182 52.4839 223.146 52.4839C195.111 52.4839 172.383 75.2111 172.383 103.247C172.383 131.282 195.111 154.009 223.146 154.009Z" fill="#7F1D1D"/>
<path d="M382.332 259.678H133.306C132.994 259.682 132.682 259.658 132.375 259.605L250.153 55.596C250.872 54.3254 251.915 53.2685 253.176 52.5331C254.437 51.7977 255.871 51.4102 257.331 51.4102C258.79 51.4102 260.224 51.7977 261.485 52.5331C262.746 53.2685 263.789 54.3254 264.508 55.596L343.552 192.502L347.339 199.052L382.332 259.678Z" fill="#172554"/>
<path opacity="0.2" d="M382.332 259.678H297.308L339.046 199.052L342.05 194.685L343.552 192.502L347.339 199.052L382.332 259.678Z" fill="black"/>
<path d="M520.988 259.678H305.601L347.339 199.052L350.342 194.685L404.73 115.678C408.296 110.5 416.874 110.177 421.066 114.701C421.348 115.01 421.609 115.336 421.849 115.678L520.988 259.678Z" fill="#1E3A8A"/>
<path d="M584.214 226.116C592.662 226.116 599.51 219.268 599.51 210.82C599.51 202.372 592.662 195.523 584.214 195.523C575.765 195.523 568.917 202.372 568.917 210.82C568.917 219.268 575.765 226.116 584.214 226.116Z" fill="#01266B"/>
<path d="M585.688 256.894H582.555L583.983 208.516L585.688 256.894Z" fill="#3F3D56"/>
<path d="M584.259 217.685L587.623 213.031L584.213 218.837L583.845 218.192L584.259 217.685Z" fill="#3F3D56"/>
<path d="M583.891 222.384L580.527 217.731L583.937 223.536L584.305 222.891L583.891 222.384Z" fill="#3F3D56"/>
<path d="M724.53 226.116C732.978 226.116 739.827 219.268 739.827 210.82C739.827 202.372 732.978 195.523 724.53 195.523C716.082 195.523 709.234 202.372 709.234 210.82C709.234 219.268 716.082 226.116 724.53 226.116Z" fill="#01266B"/>
<path d="M726.004 256.894H722.871L724.3 208.516L726.004 256.894Z" fill="#3F3D56"/>
<path d="M724.576 217.685L727.94 213.031L724.53 218.837L724.161 218.192L724.576 217.685Z" fill="#3F3D56"/>
<path d="M724.208 222.384L720.844 217.731L724.254 223.536L724.622 222.891L724.208 222.384Z" fill="#3F3D56"/>
<path d="M628.525 211.438C641.002 211.438 651.116 201.324 651.116 188.847C651.116 176.37 641.002 166.255 628.525 166.255C616.048 166.255 605.933 176.37 605.933 188.847C605.933 201.324 616.048 211.438 628.525 211.438Z" fill="#01266B"/>
<path d="M630.702 256.894H626.075L628.184 185.444L630.702 256.894Z" fill="#3F3D56"/>
<path d="M628.593 198.985L633.56 192.113L628.525 200.687L627.98 199.734L628.593 198.985Z" fill="#3F3D56"/>
<path d="M628.048 205.926L623.081 199.054L628.116 207.627L628.661 206.675L628.048 205.926Z" fill="#3F3D56"/>
<path d="M683.618 211.438C696.095 211.438 706.21 201.324 706.21 188.847C706.21 176.37 696.095 166.255 683.618 166.255C671.141 166.255 661.027 176.37 661.027 188.847C661.027 201.324 671.141 211.438 683.618 211.438Z" fill="#01266B"/>
<path d="M685.796 256.894H681.169L683.278 185.444L685.796 256.894Z" fill="#3F3D56"/>
<path d="M683.686 198.985L688.654 192.113L683.618 200.687L683.074 199.734L683.686 198.985Z" fill="#3F3D56"/>
<path d="M683.142 205.926L678.174 199.054L683.21 207.627L683.754 206.675L683.142 205.926Z" fill="#3F3D56"/>
<path d="M540.719 211.438C553.196 211.438 563.311 201.324 563.311 188.847C563.311 176.37 553.196 166.255 540.719 166.255C528.242 166.255 518.128 176.37 518.128 188.847C518.128 201.324 528.242 211.438 540.719 211.438Z" fill="#01266B"/>
<path d="M542.896 256.894H538.269L540.379 185.444L542.896 256.894Z" fill="#3F3D56"/>
<path d="M540.787 198.985L545.754 192.113L540.719 200.687L540.175 199.734L540.787 198.985Z" fill="#3F3D56"/>
<path d="M540.243 205.926L535.275 199.054L540.311 207.627L540.855 206.675L540.243 205.926Z" fill="#3F3D56"/>
<path d="M808 491.631H70.734C61.4451 491.631 52.2471 489.801 43.6653 486.247C35.0834 482.692 27.2858 477.482 20.7175 470.914C14.1493 464.345 8.93902 456.548 5.38431 447.966C1.82959 439.384 0 430.186 0 420.897C0 411.608 1.82959 402.41 5.38431 393.828C8.93902 385.246 14.1493 377.449 20.7175 370.88C27.2858 364.312 35.0834 359.102 43.6653 355.547C52.2471 351.993 61.4451 350.163 70.734 350.163H806.367C813.583 350.163 820.503 347.297 825.605 342.195C830.707 337.093 833.573 330.173 833.573 322.958C833.573 315.742 830.707 308.823 825.605 303.721C820.503 298.619 813.583 295.752 806.367 295.752H46.2492V252.224H806.367C825.127 252.224 843.119 259.676 856.384 272.941C869.649 286.206 877.101 304.198 877.101 322.958C877.101 341.717 869.649 359.709 856.384 372.974C843.119 386.239 825.127 393.692 806.367 393.692H70.734C63.5187 393.692 56.5989 396.558 51.4969 401.66C46.3949 406.762 43.5286 413.682 43.5286 420.897C43.5286 428.112 46.3949 435.032 51.4969 440.134C56.5989 445.236 63.5187 448.102 70.734 448.102H808V491.631Z" fill="#E6E6E6"/>
<path d="M107.189 272.9H73.4545V275.076H107.189V272.9Z" fill="white"/>
<path d="M202.952 272.9H169.217V275.076H202.952V272.9Z" fill="white"/>
<path d="M298.715 272.9H264.98V275.076H298.715V272.9Z" fill="white"/>
<path d="M394.478 272.9H360.743V275.076H394.478V272.9Z" fill="white"/>
<path d="M490.241 272.9H456.506V275.076H490.241V272.9Z" fill="white"/>
<path d="M586.004 272.9H552.269V275.076H586.004V272.9Z" fill="white"/>
<path d="M681.767 272.9H648.032V275.076H681.767V272.9Z" fill="white"/>
<path d="M777.53 272.9H743.795V275.076H777.53V272.9Z" fill="white"/>
<path d="M107.189 370.839H73.4545V373.016H107.189V370.839Z" fill="white"/>
<path d="M202.952 370.839H169.217V373.016H202.952V370.839Z" fill="white"/>
<path d="M298.715 370.839H264.98V373.016H298.715V370.839Z" fill="white"/>
<path d="M394.478 370.839H360.743V373.016H394.478V370.839Z" fill="white"/>
<path d="M490.241 370.839H456.506V373.016H490.241V370.839Z" fill="white"/>
<path d="M586.004 370.839H552.269V373.016H586.004V370.839Z" fill="white"/>
<path d="M681.767 370.839H648.032V373.016H681.767V370.839Z" fill="white"/>
<path d="M777.53 370.839H743.795V373.016H777.53V370.839Z" fill="white"/>
<path d="M107.189 468.779H73.4545V470.955H107.189V468.779Z" fill="white"/>
<path d="M202.952 468.779H169.217V470.955H202.952V468.779Z" fill="white"/>
<path d="M298.715 468.779H264.98V470.955H298.715V468.779Z" fill="white"/>
<path d="M394.478 468.779H360.743V470.955H394.478V468.779Z" fill="white"/>
<path d="M490.241 468.779H456.506V470.955H490.241V468.779Z" fill="white"/>
<path d="M586.004 468.779H552.269V470.955H586.004V468.779Z" fill="white"/>
<path d="M681.767 468.779H648.032V470.955H681.767V468.779Z" fill="white"/>
<path d="M777.53 468.779H743.795V470.955H777.53V468.779Z" fill="white"/>
<path d="M582.618 86.374C586.162 86.3707 589.648 87.2716 592.747 88.9914H572.515C575.604 87.2721 579.082 86.3711 582.618 86.374Z" fill="#E6E6E6"/>
<path d="M543.357 83.7569C549.277 83.7499 555.054 85.5789 559.891 88.9917H526.845C531.676 85.5829 537.444 83.7541 543.357 83.7569Z" fill="#E6E6E6"/>
<path d="M320.962 50.6231C321.68 37.9273 326.884 25.8992 335.645 16.6832C344.407 7.46721 356.156 1.66244 368.8 0.303818C381.443 -1.05481 394.158 2.12103 404.677 9.26511C415.197 16.4092 422.837 27.0571 426.236 39.3105C426.886 39.2872 427.536 39.261 428.191 39.261C439.784 39.2632 451.064 43.0186 460.344 49.9655C469.624 56.9124 476.405 66.6773 479.674 77.7994C487.355 74.4242 495.939 73.692 504.081 75.7173C512.223 77.7426 519.464 82.4111 524.669 88.9916H357.297C352.414 89.0054 347.579 88.0338 343.08 86.1349C338.582 84.2361 334.513 81.449 331.117 77.9406C327.721 74.4321 325.068 70.2745 323.316 65.7166C321.565 61.1587 320.751 56.2942 320.924 51.4145C320.935 51.151 320.947 50.8873 320.962 50.6231Z" fill="#E6E6E6"/>
<path d="M594.831 125.55C591.287 125.546 587.801 126.447 584.702 128.167H604.934C601.845 126.448 598.367 125.547 594.831 125.55Z" fill="#E6E6E6"/>
<path d="M634.092 122.933C628.172 122.926 622.395 124.755 617.558 128.167H650.604C645.773 124.759 640.005 122.93 634.092 122.933Z" fill="#E6E6E6"/>
<path d="M856.487 89.7989C855.769 77.1031 850.565 65.075 841.804 55.859C833.042 46.643 821.292 40.8382 808.649 39.4796C796.006 38.121 783.291 41.2968 772.772 48.4409C762.252 55.585 754.612 66.2329 751.213 78.4863C750.563 78.4629 749.913 78.4368 749.257 78.4368C737.665 78.439 726.385 82.1944 717.105 89.1413C707.825 96.0882 701.043 105.853 697.775 116.975C690.094 113.6 681.51 112.868 673.368 114.893C665.226 116.918 657.985 121.587 652.78 128.167H820.152C825.035 128.181 829.87 127.21 834.369 125.311C838.867 123.412 842.936 120.625 846.332 117.116C849.728 113.608 852.381 109.45 854.133 104.892C855.884 100.334 856.698 95.4699 856.525 90.5902C856.514 90.3268 856.502 90.063 856.487 89.7989Z" fill="#E6E6E6"/>
<path d="M744.902 461.212L764.354 461.223L764.356 458.135L744.903 458.125L744.902 461.212Z" fill="#3F3D56"/>
<path d="M604.257 458.821L608.271 459.75L760.804 459.831L762.176 456.636C764.568 451.154 765.389 445.115 764.547 439.194C763.89 434.78 762.244 430.395 758.505 428.49L751.736 383.405L667.347 383.254L634.698 409.588C634.698 409.588 619.296 409.312 610.929 419.728C607.911 423.601 606.129 428.294 605.815 433.194L605.485 438.613L604.257 458.821Z" fill="#01266B"/>
<path d="M637.76 476.903C648.162 476.903 656.595 468.47 656.595 458.068C656.595 447.665 648.162 439.232 637.76 439.232C627.357 439.232 618.924 447.665 618.924 458.068C618.924 468.47 627.357 476.903 637.76 476.903Z" fill="#3F3D56"/>
<path d="M637.76 467.981C643.234 467.981 647.673 463.542 647.673 458.068C647.673 452.593 643.234 448.154 637.76 448.154C632.285 448.154 627.846 452.593 627.846 458.068C627.846 463.542 632.285 467.981 637.76 467.981Z" fill="#CCCCCC"/>
<path d="M730.7 476.952C741.102 476.952 749.535 468.52 749.535 458.117C749.535 447.715 741.102 439.282 730.7 439.282C720.298 439.282 711.865 447.715 711.865 458.117C711.865 468.52 720.298 476.952 730.7 476.952Z" fill="#3F3D56"/>
<path d="M730.7 468.031C736.175 468.031 740.613 463.592 740.613 458.117C740.613 452.642 736.175 448.204 730.7 448.204C725.225 448.204 720.787 452.642 720.787 458.117C720.787 463.592 725.225 468.031 730.7 468.031Z" fill="#CCCCCC"/>
<path d="M647.67 406.511L693.233 406.53H698.795L708.185 406.537V405.852L708.192 397.594L708.199 388.322H701.951L696.389 388.316L686.537 388.309H680.975L669.601 388.302L647.67 406.511Z" fill="white"/>
<path d="M715.599 406.544L739.679 406.557L739.685 401.832V393.574L739.692 388.342H736.166L730.604 388.335L715.606 388.329L715.599 406.544Z" fill="white"/>
<path d="M705.089 425.991L708.177 425.993L708.18 420.126L705.092 420.124L705.089 425.991Z" fill="#3F3D56"/>
<path d="M660.014 414.851L660.016 411.764L654.149 411.761L654.147 414.848L660.014 414.851Z" fill="#3F3D56"/>
<path d="M657.854 413.121L657.514 413.121C656.667 413.12 655.828 412.953 655.045 412.628C654.262 412.304 653.551 411.828 652.952 411.228C652.353 410.629 651.878 409.917 651.554 409.134C651.23 408.351 651.064 407.512 651.064 406.664C651.065 405.817 651.232 404.978 651.557 404.195C651.882 403.412 652.357 402.701 652.957 402.102C653.556 401.503 654.268 401.028 655.051 400.704C655.834 400.38 656.674 400.214 657.521 400.214L657.861 400.214L657.854 413.121Z" fill="#3F3D56"/>
<path d="M605.485 438.613C607.82 438.867 610.169 438.289 612.12 436.98C614.071 435.672 615.497 433.717 616.148 431.46C616.798 429.203 616.632 426.789 615.677 424.643C614.722 422.497 613.041 420.757 610.929 419.729C607.911 423.602 606.129 428.294 605.815 433.194L605.485 438.613Z" fill="#3F3D56"/>
<path d="M696.389 388.316L708.185 405.852L708.192 397.594L701.951 388.322L696.389 388.316Z" fill="#F2F2F2"/>
<path d="M730.604 388.335L739.685 401.832V393.574L736.166 388.342L730.604 388.335Z" fill="#F2F2F2"/>
<path d="M680.975 388.309L693.233 406.53H698.795L686.537 388.309H680.975Z" fill="#F2F2F2"/>
<path d="M75.3212 266.467C53.7535 235.2 49.7502 231.991 49.7502 220.5C49.7502 204.76 62.51 192 78.2502 192C93.9903 192 106.75 204.76 106.75 220.5C106.75 231.991 102.747 235.2 81.1792 266.467C79.7638 268.511 76.7364 268.511 75.3212 266.467ZM78.2502 232.375C84.8086 232.375 90.1252 227.058 90.1252 220.5C90.1252 213.942 84.8086 208.625 78.2502 208.625C71.6918 208.625 66.3752 213.942 66.3752 220.5C66.3752 227.058 71.6918 232.375 78.2502 232.375Z" fill="#084DD3"/>
</svg>
