<svg xmlns="http://www.w3.org/2000/svg" width="150" viewBox="0 0 112.5 52.5" height="70" preserveAspectRatio="xMidYMid meet">
  <!-- Location pin icon -->
  <g fill="#ffffff">
    <path d="M 25.554688 28.597656 C 25.207031 29.367188 24.835938 30.09375 24.4375 30.78125 C 24.046875 32.746094 23.035156 34.839844 21.203125 36.945312 C 17.078125 41.683594 9.601562 41.84375 4.800781 39.832031 C 8.949219 46.519531 15.953125 52.003906 15.953125 52.003906 C 15.953125 52.003906 31.625 39.742188 31.625 27.203125 C 31.625 23.613281 30.414062 20.304688 28.382812 17.664062 C 27.910156 21.828125 26.957031 25.5 25.554688 28.597656 Z"/>
    <path d="M 12.316406 37.75 C 14.78125 37.683594 17.085938 36.871094 19.121094 35.359375 C 20.207031 34.554688 21.222656 33.546875 22.140625 32.347656 C 23.058594 31.144531 23.882812 29.75 24.597656 28.167969 C 26.023438 25.023438 27.015625 21.132812 27.449219 16.554688 C 27.640625 14.472656 27.722656 12.246094 27.675781 9.878906 C 27.199219 11.699219 26.671875 13.515625 26.097656 15.261719 C 25.121094 18.207031 24 20.96875 22.707031 23.28125 C 20.710938 26.867188 18.3125 29.378906 15.441406 29.839844 C 8.210938 31 7.765625 20.238281 15.492188 19.804688 C 17.855469 19.671875 20.234375 20.6875 21.972656 22.445312 C 23.074219 20.410156 24.125 17.886719 25.101562 14.933594 C 25.140625 14.8125 25.179688 14.691406 25.21875 14.570312 C 22.625 12.664062 19.421875 11.539062 15.953125 11.539062 C 7.300781 11.539062 0.285156 18.550781 0.285156 27.203125 C 0.285156 27.316406 0.285156 27.898438 0.320312 28.203125 C 1.042969 34.792969 6.183594 37.921875 12.316406 37.75 Z"/>
    <path d="M 27.820312 5.546875 L 29.0625 11.625 L 32.644531 11.832031 L 28.140625 0 L 22.308594 11.234375 L 25.890625 11.441406 Z"/>
  </g>
  <!-- REISE text -->
  <g fill="#ffffff" transform="translate(31, 7)">
    <g transform="translate(1.08, 32.21)">
      <path d="M 9.328125 -21.40625 C 11.265625 -21.40625 12.878906 -21.164062 14.171875 -20.6875 C 15.460938 -20.21875 16.429688 -19.515625 17.078125 -18.578125 C 17.722656 -17.640625 18.046875 -16.472656 18.046875 -15.078125 C 18.046875 -14.210938 17.898438 -13.421875 17.609375 -12.703125 C 17.316406 -11.992188 16.898438 -11.359375 16.359375 -10.796875 C 15.816406 -10.234375 15.171875 -9.742188 14.421875 -9.328125 L 20.65625 0 L 14.09375 0 L 9.5625 -7.78125 L 8.09375 -7.78125 L 8.09375 0 L 2.3125 0 L 2.3125 -21.40625 Z M 9.234375 -17.03125 L 8.09375 -17.03125 L 8.09375 -12.140625 L 9.1875 -12.140625 C 10.070312 -12.140625 10.796875 -12.332031 11.359375 -12.71875 C 11.921875 -13.113281 12.203125 -13.8125 12.203125 -14.8125 C 12.203125 -15.507812 11.96875 -16.050781 11.5 -16.4375 C 11.039062 -16.832031 10.285156 -17.03125 9.234375 -17.03125 Z"/>
    </g>
    <g transform="translate(21.36, 32.21)">
      <path d="M 15.015625 0 L 2.3125 0 L 2.3125 -21.40625 L 15.015625 -21.40625 L 15.015625 -16.765625 L 8.09375 -16.765625 L 8.09375 -13.390625 L 14.515625 -13.390625 L 14.515625 -8.75 L 8.09375 -8.75 L 8.09375 -4.71875 L 15.015625 -4.71875 Z"/>
    </g>
    <g transform="translate(37.81, 32.21)">
      <path d="M 2.3125 0 L 2.3125 -21.40625 L 8.125 -21.40625 L 8.125 0 Z"/>
    </g>
    <g transform="translate(48.25, 32.21)">
      <path d="M 16.3125 -6.5 C 16.3125 -5.34375 16.015625 -4.242188 15.421875 -3.203125 C 14.835938 -2.160156 13.925781 -1.316406 12.6875 -0.671875 C 11.457031 -0.0234375 9.867188 0.296875 7.921875 0.296875 C 6.941406 0.296875 6.082031 0.25 5.34375 0.15625 C 4.613281 0.0703125 3.929688 -0.0664062 3.296875 -0.265625 C 2.660156 -0.472656 2 -0.734375 1.3125 -1.046875 L 1.3125 -6.203125 C 2.476562 -5.617188 3.648438 -5.171875 4.828125 -4.859375 C 6.015625 -4.554688 7.082031 -4.40625 8.03125 -4.40625 C 8.613281 -4.40625 9.085938 -4.472656 9.453125 -4.609375 C 9.816406 -4.742188 10.085938 -4.929688 10.265625 -5.171875 C 10.441406 -5.410156 10.53125 -5.6875 10.53125 -6 C 10.53125 -6.375 10.398438 -6.6875 10.140625 -6.9375 C 9.878906 -7.195312 9.460938 -7.46875 8.890625 -7.75 C 8.328125 -8.039062 7.582031 -8.394531 6.65625 -8.8125 C 5.863281 -9.1875 5.148438 -9.566406 4.515625 -9.953125 C 3.878906 -10.347656 3.332031 -10.796875 2.875 -11.296875 C 2.425781 -11.796875 2.078125 -12.378906 1.828125 -13.046875 C 1.585938 -13.722656 1.46875 -14.523438 1.46875 -15.453125 C 1.46875 -16.828125 1.804688 -17.976562 2.484375 -18.90625 C 3.160156 -19.84375 4.101562 -20.546875 5.3125 -21.015625 C 6.53125 -21.484375 7.9375 -21.71875 9.53125 -21.71875 C 10.925781 -21.71875 12.179688 -21.5625 13.296875 -21.25 C 14.421875 -20.9375 15.425781 -20.578125 16.3125 -20.171875 L 14.53125 -15.703125 C 13.613281 -16.128906 12.710938 -16.460938 11.828125 -16.703125 C 10.941406 -16.953125 10.117188 -17.078125 9.359375 -17.078125 C 8.859375 -17.078125 8.445312 -17.015625 8.125 -16.890625 C 7.8125 -16.773438 7.578125 -16.613281 7.421875 -16.40625 C 7.273438 -16.207031 7.203125 -15.972656 7.203125 -15.703125 C 7.203125 -15.378906 7.332031 -15.082031 7.59375 -14.8125 C 7.851562 -14.550781 8.285156 -14.265625 8.890625 -13.953125 C 9.503906 -13.648438 10.335938 -13.253906 11.390625 -12.765625 C 12.429688 -12.296875 13.316406 -11.789062 14.046875 -11.25 C 14.785156 -10.707031 15.347656 -10.054688 15.734375 -9.296875 C 16.117188 -8.546875 16.3125 -7.613281 16.3125 -6.5 Z"/>
    </g>
    <g transform="translate(65.55, 32.21)">
      <path d="M 15.015625 0 L 2.3125 0 L 2.3125 -21.40625 L 15.015625 -21.40625 L 15.015625 -16.765625 L 8.09375 -16.765625 L 8.09375 -13.390625 L 14.515625 -13.390625 L 14.515625 -8.75 L 8.09375 -8.75 L 8.09375 -4.71875 L 15.015625 -4.71875 Z"/>
    </g>
  </g>
  <!-- KLAR text -->
  <g fill="#993b01" transform="translate(34, 40)">
    <g transform="translate(0.16, 9.8)">
      <path d="M 6.234375 -0.96875 C 6.367188 -0.84375 6.4375 -0.703125 6.4375 -0.546875 C 6.4375 -0.390625 6.375 -0.25 6.25 -0.125 C 6.132812 -0.0078125 6 0.046875 5.84375 0.046875 C 5.675781 0.046875 5.519531 -0.0234375 5.375 -0.171875 L 2.046875 -3.296875 L 2.046875 -0.59375 C 2.046875 -0.394531 1.988281 -0.234375 1.875 -0.109375 C 1.757812 0.00390625 1.601562 0.0625 1.40625 0.0625 C 1.207031 0.0625 1.050781 0.00390625 0.9375 -0.109375 C 0.820312 -0.234375 0.765625 -0.394531 0.765625 -0.59375 L 0.765625 -6.453125 C 0.765625 -6.648438 0.820312 -6.804688 0.9375 -6.921875 C 1.050781 -7.035156 1.207031 -7.09375 1.40625 -7.09375 C 1.601562 -7.09375 1.757812 -7.035156 1.875 -6.921875 C 1.988281 -6.804688 2.046875 -6.648438 2.046875 -6.453125 L 2.046875 -3.890625 L 5.265625 -6.90625 C 5.390625 -7.03125 5.53125 -7.09375 5.6875 -7.09375 C 5.832031 -7.09375 5.960938 -7.03125 6.078125 -6.90625 C 6.203125 -6.789062 6.265625 -6.660156 6.265625 -6.515625 C 6.265625 -6.359375 6.195312 -6.21875 6.0625 -6.09375 L 3.375 -3.625 Z"/>
    </g>
    <g transform="translate(9.26, 9.8)">
      <path d="M 1.375 0 C 1.175781 0 1.023438 -0.0507812 0.921875 -0.15625 C 0.816406 -0.257812 0.765625 -0.40625 0.765625 -0.59375 L 0.765625 -6.453125 C 0.765625 -6.648438 0.820312 -6.804688 0.9375 -6.921875 C 1.050781 -7.035156 1.207031 -7.09375 1.40625 -7.09375 C 1.601562 -7.09375 1.757812 -7.035156 1.875 -6.921875 C 1.988281 -6.804688 2.046875 -6.648438 2.046875 -6.453125 L 2.046875 -1.0625 L 4.859375 -1.0625 C 5.253906 -1.0625 5.453125 -0.882812 5.453125 -0.53125 C 5.453125 -0.175781 5.253906 0 4.859375 0 Z"/>
    </g>
    <g transform="translate(17.3, 9.8)">
      <path d="M 7.15625 -0.765625 C 7.1875 -0.679688 7.203125 -0.597656 7.203125 -0.515625 C 7.203125 -0.359375 7.140625 -0.222656 7.015625 -0.109375 C 6.898438 -0.00390625 6.757812 0.046875 6.59375 0.046875 C 6.488281 0.046875 6.390625 0.0195312 6.296875 -0.03125 C 6.203125 -0.09375 6.128906 -0.1875 6.078125 -0.3125 L 5.484375 -1.65625 L 1.953125 -1.65625 L 1.359375 -0.3125 C 1.304688 -0.1875 1.234375 -0.09375 1.140625 -0.03125 C 1.046875 0.0195312 0.941406 0.046875 0.828125 0.046875 C 0.671875 0.046875 0.53125 -0.00390625 0.40625 -0.109375 C 0.28125 -0.222656 0.21875 -0.359375 0.21875 -0.515625 C 0.21875 -0.597656 0.238281 -0.679688 0.28125 -0.765625 L 3.046875 -6.703125 C 3.097656 -6.835938 3.1875 -6.9375 3.3125 -7 C 3.4375 -7.070312 3.566406 -7.109375 3.703125 -7.109375 C 3.847656 -7.109375 3.984375 -7.070312 4.109375 -7 C 4.234375 -6.9375 4.320312 -6.835938 4.375 -6.703125 Z M 2.40625 -2.65625 L 5.046875 -2.65625 L 3.71875 -5.625 Z"/>
    </g>
    <g transform="translate(27.22, 9.8)">
      <path d="M 6.40625 -0.8125 C 6.476562 -0.6875 6.515625 -0.566406 6.515625 -0.453125 C 6.515625 -0.304688 6.453125 -0.179688 6.328125 -0.078125 C 6.210938 0.015625 6.070312 0.0625 5.90625 0.0625 C 5.789062 0.0625 5.6875 0.0390625 5.59375 0 C 5.5 -0.0507812 5.414062 -0.128906 5.34375 -0.234375 L 4.015625 -2.25 C 3.878906 -2.457031 3.738281 -2.601562 3.59375 -2.6875 C 3.445312 -2.78125 3.253906 -2.828125 3.015625 -2.828125 L 2.03125 -2.828125 L 2.03125 -0.59375 C 2.03125 -0.394531 1.972656 -0.234375 1.859375 -0.109375 C 1.742188 0.00390625 1.59375 0.0625 1.40625 0.0625 C 1.207031 0.0625 1.050781 0.00390625 0.9375 -0.109375 C 0.820312 -0.234375 0.765625 -0.394531 0.765625 -0.59375 L 0.765625 -6.4375 C 0.765625 -6.632812 0.816406 -6.785156 0.921875 -6.890625 C 1.035156 -6.992188 1.1875 -7.046875 1.375 -7.046875 L 3.875 -7.046875 C 4.675781 -7.046875 5.285156 -6.867188 5.703125 -6.515625 C 6.117188 -6.160156 6.328125 -5.644531 6.328125 -4.96875 C 6.328125 -4.425781 6.171875 -3.976562 5.859375 -3.625 C 5.554688 -3.269531 5.117188 -3.046875 4.546875 -2.953125 C 4.742188 -2.898438 4.914062 -2.8125 5.0625 -2.6875 C 5.207031 -2.570312 5.347656 -2.410156 5.484375 -2.203125 Z M 3.703125 -3.8125 C 4.191406 -3.8125 4.546875 -3.90625 4.765625 -4.09375 C 4.992188 -4.28125 5.109375 -4.5625 5.109375 -4.9375 C 5.109375 -5.320312 4.992188 -5.601562 4.765625 -5.78125 C 4.546875 -5.957031 4.191406 -6.046875 3.703125 -6.046875 L 2.015625 -6.046875 L 2.015625 -3.8125 Z"/>
    </g>
  </g>
</svg>
