<svg width="1728" height="1117" viewBox="0 0 1728 1117" fill="none" xmlns="http://www.w3.org/2000/svg">
<g clip-path="url(#clip0_203_52)">
<rect width="1728" height="1117" fill="url(#paint0_linear_203_52)"/>
<path d="M1277.4 285.703C1288.35 258.117 1294.5 227.953 1294.5 196.5C1294.5 59.8594 1179.61 -51 1038 -51C985.364 -51 936.202 -35.5313 895.589 -9.23438C821.578 -132.984 683.442 -216 525 -216C288.806 -216 97.5 -31.4063 97.5 196.5C97.5 203.461 97.7672 210.422 98.0344 217.383C-51.5906 268.172 -159 405.844 -159 567.75C-159 772.711 13.3359 939 225.75 939H1209C1397.9 939 1551 791.273 1551 609C1551 449.414 1433.44 316.125 1277.4 285.703Z" fill="#043072"/>
<path d="M-29.6365 293.885C-22.2214 300.402 -13.4593 305.766 -3.60438 309.423C39.2079 325.311 86.8223 303.493 102.698 260.714C108.598 244.813 109.263 228.163 105.577 212.837C152.647 204.868 194.144 172.791 211.906 124.927C238.385 53.5744 201.995 -25.681 130.587 -52.1804C128.406 -52.9898 126.195 -53.7184 123.984 -54.4471C124.845 -105.553 93.7507 -154.008 43.0222 -172.833C-21.1962 -196.665 -92.6179 -163.939 -116.431 -99.7702L-226.66 197.261C-247.837 254.327 -218.714 317.753 -161.604 338.947C-111.603 357.502 -56.6611 337.486 -29.6365 293.885Z" fill="#0B4391"/>
<path d="M374.095 860.942C345.338 818.979 340 814.672 340 799.25C340 778.125 357.013 761 378 761C398.987 761 416 778.125 416 799.25C416 814.672 410.662 818.979 381.905 860.942C380.018 863.686 375.982 863.686 374.095 860.942ZM378 815.187C386.745 815.187 393.833 808.052 393.833 799.25C393.833 790.448 386.745 783.312 378 783.312C369.255 783.312 362.167 790.448 362.167 799.25C362.167 808.052 369.255 815.187 378 815.187Z" fill="#165BB1"/>
<path d="M878.087 247.031L863.707 262.918L820.12 250.045C819.54 249.874 818.949 249.851 818.408 249.979C817.868 250.107 817.396 250.381 817.041 250.773L808.8 259.878C807.462 261.355 808.176 263.941 810.23 265.062L844.727 283.887L831.785 298.185L816.841 295.584C815.796 295.402 814.807 295.708 814.174 296.407L809.143 301.966C807.833 303.413 808.486 305.936 810.472 307.094L832.283 318.868L846.166 339.402C847.515 341.263 850.09 341.662 851.4 340.215L856.432 334.657C857.066 333.956 857.271 332.943 856.986 331.921L852.913 317.31L865.855 303.012L888.012 335.466C889.332 337.399 891.977 337.854 893.314 336.376L901.556 327.271C902.278 326.474 902.436 325.277 901.973 324.136L884.835 282.043L899.215 266.156C903.663 261.242 906.565 248.531 900.73 243.249C894.894 237.967 882.534 242.118 878.087 247.031Z" fill="#165BB1"/>
<path d="M1409.72 809H1408.62V802.25C1408.62 795.95 1395.06 791 1378 791C1360.94 791 1347.38 795.95 1347.38 802.25V809H1346.28C1344.47 809 1343 810.51 1343 812.375V823.625C1343 825.488 1344.47 827 1346.28 827H1347.38V849.5C1347.38 851.985 1349.33 854 1351.75 854V858.5C1351.75 860.985 1353.71 863 1356.12 863H1360.5C1362.92 863 1364.88 860.985 1364.88 858.5V854H1391.12V858.5C1391.12 860.985 1393.08 863 1395.5 863H1399.88C1402.29 863 1404.25 860.985 1404.25 858.5V854H1405.12C1407.31 854 1408.62 852.2 1408.62 850.4V827H1409.72C1411.53 827 1413 825.488 1413 823.625V812.375C1413 810.51 1411.53 809 1409.72 809ZM1358.31 847.25C1355.9 847.25 1353.94 845.235 1353.94 842.75C1353.94 840.265 1355.9 838.25 1358.31 838.25C1360.73 838.25 1362.69 840.265 1362.69 842.75C1362.69 845.235 1360.73 847.25 1358.31 847.25ZM1360.5 831.5C1358.08 831.5 1356.12 829.485 1356.12 827V809C1356.12 806.515 1358.08 804.5 1360.5 804.5H1395.5C1397.92 804.5 1399.88 806.515 1399.88 809V827C1399.88 829.485 1397.92 831.5 1395.5 831.5H1360.5ZM1397.69 847.25C1395.27 847.25 1393.31 845.235 1393.31 842.75C1393.31 840.265 1395.27 838.25 1397.69 838.25C1400.1 838.25 1402.06 840.265 1402.06 842.75C1402.06 845.235 1400.1 847.25 1397.69 847.25Z" fill="#165BB1"/>
</g>
<defs>
<linearGradient id="paint0_linear_203_52" x1="864" y1="0" x2="864" y2="1117" gradientUnits="userSpaceOnUse">
<stop stop-color="#0C4391"/>
<stop offset="0.5" stop-color="#043072"/>
<stop offset="1" stop-color="#022F6E"/>
</linearGradient>
<clipPath id="clip0_203_52">
<rect width="1728" height="1117" fill="white"/>
</clipPath>
</defs>
</svg>
