<svg width="158" height="43" viewBox="0 0 158 43" fill="none" xmlns="http://www.w3.org/2000/svg">
<path d="M40.2109 23.2217V31H36.0947V18.8711C36.0947 18.002 36.0801 17.2793 36.0508 16.7031C36.0312 16.1172 36.0068 15.5996 35.9775 15.1504H39.9033C39.9229 15.2383 39.9424 15.4336 39.9619 15.7363C39.9814 16.0391 40.001 16.3809 40.0205 16.7617C40.04 17.1328 40.0547 17.4844 40.0645 17.8164C40.084 18.1484 40.0938 18.3877 40.0938 18.5342H40.1523C40.543 17.4404 40.8994 16.6543 41.2217 16.1758C41.5342 15.7168 41.9053 15.3799 42.335 15.165C42.7646 14.9502 43.3018 14.8428 43.9463 14.8428C44.4736 14.8428 44.8984 14.916 45.2207 15.0625V18.5049C44.5664 18.3584 43.9805 18.2852 43.4629 18.2852C42.4375 18.2852 41.6367 18.7002 41.0605 19.5303C40.4941 20.3604 40.2109 21.5908 40.2109 23.2217ZM51.1826 23.8662C51.1826 25.4092 51.4658 26.5762 52.0322 27.3672C52.6084 28.1484 53.4238 28.5391 54.4785 28.5391C55.2012 28.5391 55.792 28.3828 56.251 28.0703C56.7197 27.748 57.0469 27.2744 57.2324 26.6494L61.1143 26.9863C59.9912 29.8574 57.7109 31.293 54.2734 31.293C51.8906 31.293 50.0596 30.5898 48.7803 29.1836C47.501 27.7676 46.8613 25.707 46.8613 23.002C46.8613 20.3848 47.5107 18.373 48.8096 16.9668C50.1084 15.5605 51.9492 14.8574 54.332 14.8574C56.6074 14.8574 58.3457 15.6143 59.5469 17.1279C60.748 18.6318 61.3486 20.8389 61.3486 23.749V23.8662H51.1826ZM57.3643 21.2881C57.2861 20.0088 56.9785 19.0518 56.4414 18.417C55.9043 17.7725 55.1816 17.4502 54.2734 17.4502C53.3066 17.4502 52.5596 17.7871 52.0322 18.4609C51.5146 19.1348 51.2412 20.0771 51.2119 21.2881H57.3643ZM68.5996 9.26172V12.2939H64.4834V9.26172H68.5996ZM68.5996 15.1504V31H64.4834V15.1504H68.5996ZM86.1924 26.3711C86.1924 27.9043 85.5625 29.1104 84.3027 29.9893C83.0527 30.8584 81.3193 31.293 79.1025 31.293C76.9248 31.293 75.2549 30.9512 74.0928 30.2676C72.9404 29.5742 72.1738 28.5 71.793 27.0449L75.4111 26.5029C75.6162 27.2549 75.9678 27.7871 76.4658 28.0996C76.9736 28.4121 77.8525 28.5684 79.1025 28.5684C80.2549 28.5684 81.0947 28.4219 81.6221 28.1289C82.1494 27.8359 82.4131 27.377 82.4131 26.752C82.4131 26.2441 82.1982 25.8438 81.7686 25.5508C81.3486 25.248 80.6309 24.9941 79.6152 24.7891C78.8438 24.6328 78.1504 24.4814 77.5352 24.335C76.9297 24.1885 76.4072 24.0469 75.9678 23.9102C75.5381 23.7637 75.1865 23.627 74.9131 23.5C74.1025 23.0996 73.4824 22.5869 73.0527 21.9619C72.6328 21.3369 72.4229 20.5654 72.4229 19.6475C72.4229 18.1338 73.0039 16.957 74.166 16.1172C75.3379 15.2676 76.9932 14.8428 79.1318 14.8428C81.0166 14.8428 82.5303 15.209 83.6729 15.9414C84.8252 16.6738 85.543 17.7334 85.8262 19.1201L82.1787 19.501C82.0615 18.8564 81.7734 18.3779 81.3145 18.0654C80.8555 17.7432 80.1279 17.582 79.1318 17.582C78.1553 17.582 77.4229 17.709 76.9346 17.9629C76.4463 18.207 76.2021 18.6221 76.2021 19.208C76.2021 19.667 76.3877 20.0332 76.7588 20.3066C77.1396 20.5703 77.7744 20.79 78.6631 20.9658C79.9033 21.2197 81.002 21.4834 81.959 21.7568C82.9258 22.0205 83.7021 22.3379 84.2881 22.709C84.8643 23.0801 85.3232 23.5586 85.665 24.1445C86.0166 24.7207 86.1924 25.4629 86.1924 26.3711ZM92.9307 23.8662C92.9307 25.4092 93.2139 26.5762 93.7803 27.3672C94.3564 28.1484 95.1719 28.5391 96.2266 28.5391C96.9492 28.5391 97.54 28.3828 97.999 28.0703C98.4678 27.748 98.7949 27.2744 98.9805 26.6494L102.862 26.9863C101.739 29.8574 99.459 31.293 96.0215 31.293C93.6387 31.293 91.8076 30.5898 90.5283 29.1836C89.249 27.7676 88.6094 25.707 88.6094 23.002C88.6094 20.3848 89.2588 18.373 90.5576 16.9668C91.8564 15.5605 93.6973 14.8574 96.0801 14.8574C98.3555 14.8574 100.094 15.6143 101.295 17.1279C102.496 18.6318 103.097 20.8389 103.097 23.749V23.8662H92.9307ZM99.1123 21.2881C99.0342 20.0088 98.7266 19.0518 98.1895 18.417C97.6523 17.7725 96.9297 17.4502 96.0215 17.4502C95.0547 17.4502 94.3076 17.7871 93.7803 18.4609C93.2627 19.1348 92.9893 20.0771 92.96 21.2881H99.1123ZM110.348 25.0527V31H106.231V9.26172H110.348V21.7129L116.002 15.1504H120.426L114.859 21.332L120.851 31H116.354L112.12 23.8223L110.348 25.0527Z" fill="#071F66"/>
<path d="M127.047 9.26172V31H122.931V9.26172H127.047ZM134.942 31.293C133.409 31.293 132.213 30.8779 131.354 30.0479C130.494 29.208 130.064 28.0312 130.064 26.5176C130.064 24.877 130.597 23.6318 131.661 22.7822C132.735 21.9326 134.288 21.4883 136.319 21.4492L139.732 21.3906V20.585C139.732 19.5498 139.552 18.7832 139.19 18.2852C138.829 17.7773 138.238 17.5234 137.418 17.5234C136.656 17.5234 136.095 17.6992 135.733 18.0508C135.382 18.3926 135.162 18.9639 135.074 19.7646L130.782 19.5596C131.319 16.4248 133.59 14.8574 137.594 14.8574C139.596 14.8574 141.139 15.3506 142.223 16.3369C143.307 17.3232 143.849 18.7246 143.849 20.541V26.3125C143.849 27.2012 143.946 27.8164 144.142 28.1582C144.347 28.4902 144.684 28.6562 145.152 28.6562C145.465 28.6562 145.768 28.627 146.061 28.5684V30.7949C145.553 30.9219 145.118 31.0146 144.757 31.0732C144.396 31.1416 143.951 31.1758 143.424 31.1758C142.389 31.1758 141.622 30.9219 141.124 30.4141C140.636 29.9062 140.343 29.1592 140.245 28.1729H140.157C139.581 29.208 138.858 29.9893 137.989 30.5166C137.12 31.0342 136.104 31.293 134.942 31.293ZM139.732 23.6611L137.623 23.6904C136.656 23.7393 135.978 23.8418 135.587 23.998C135.187 24.1738 134.879 24.4375 134.664 24.7891C134.459 25.1406 134.356 25.6094 134.356 26.1953C134.356 26.9473 134.527 27.5088 134.869 27.8799C135.221 28.2412 135.685 28.4219 136.261 28.4219C136.905 28.4219 137.496 28.2461 138.033 27.8945C138.561 27.543 138.976 27.0596 139.278 26.4443C139.581 25.8193 139.732 25.1602 139.732 24.4668V23.6611ZM152.096 23.2217V31H147.979V18.8711C147.979 18.002 147.965 17.2793 147.936 16.7031C147.916 16.1172 147.892 15.5996 147.862 15.1504H151.788C151.808 15.2383 151.827 15.4336 151.847 15.7363C151.866 16.0391 151.886 16.3809 151.905 16.7617C151.925 17.1328 151.939 17.4844 151.949 17.8164C151.969 18.1484 151.979 18.3877 151.979 18.5342H152.037C152.428 17.4404 152.784 16.6543 153.106 16.1758C153.419 15.7168 153.79 15.3799 154.22 15.165C154.649 14.9502 155.187 14.8428 155.831 14.8428C156.358 14.8428 156.783 14.916 157.105 15.0625V18.5049C156.451 18.3584 155.865 18.2852 155.348 18.2852C154.322 18.2852 153.521 18.7002 152.945 19.5303C152.379 20.3604 152.096 21.5908 152.096 23.2217Z" fill="#7F1D1D"/>
<path fill-rule="evenodd" clip-rule="evenodd" d="M29.9557 9.75031C29.9881 7.82647 27.9103 6.6021 26.2418 7.56183L4.4008 20.1269C2.75409 21.0748 2.74231 23.4463 4.37844 24.4104L5.19834 24.8936L3.19742 25.9516L4.07569 29.3539L14.7019 31.3911L21.6327 39.6996L25.0345 38.8193L24.9905 36.5563L25.8104 37.0395C26.1839 37.2593 26.6086 37.3774 27.0419 37.3818C27.4753 37.3863 27.9023 37.2771 28.2803 37.065C28.6582 36.8529 28.974 36.5454 29.196 36.1732C29.418 35.801 29.5385 35.377 29.5455 34.9437L29.9557 9.75031ZM7.3469 26.1596L11.9082 23.7469L22.514 18.1337L22.7444 30.1503L22.8427 35.289L22.8786 37.1808L22.4028 37.3048L15.8465 29.4487L5.79674 27.5211L5.67346 27.0441L7.3469 26.1596Z" fill="url(#paint0_linear_225_10)"/>
<defs>
<linearGradient id="paint0_linear_225_10" x1="28.7341" y1="7.57326" x2="12.8522" y2="34.5255" gradientUnits="userSpaceOnUse">
<stop stop-color="#084DD3"/>
<stop offset="0.668269" stop-color="#071F66"/>
</linearGradient>
</defs>
</svg>
