<svg width="141" height="48" viewBox="0 0 141 48" fill="none" xmlns="http://www.w3.org/2000/svg">
<path fill-rule="evenodd" clip-rule="evenodd" d="M20 44C31.0455 44 40 35.0455 40 24C40 12.9545 31.0455 4 20 4C8.95455 4 0 12.9545 0 24C0 35.0455 8.95455 44 20 44ZM6.62545 22.9818C6.53935 23.0155 6.46529 23.0742 6.4128 23.1504C6.36031 23.2265 6.33179 23.3166 6.33091 23.4091C6.33091 23.5945 6.45273 23.7691 6.62545 23.8345L12.0564 25.8164L23.2455 20.04C23.3046 20.0126 23.3715 20.0066 23.4346 20.0232C23.4976 20.0398 23.5529 20.0779 23.5909 20.1309C23.6265 20.1854 23.642 20.2507 23.6347 20.3154C23.6274 20.3801 23.5978 20.4402 23.5509 20.4855L16.02 27.24L24.4582 34.0345C24.58 34.1218 24.7436 34.1436 24.8836 34.0927C24.9534 34.066 25.0157 34.0228 25.0651 33.9668C25.1145 33.9107 25.1496 33.8435 25.1673 33.7709L29.6364 14.9745C29.6548 14.8941 29.6514 14.8102 29.6265 14.7316C29.6015 14.6529 29.556 14.5824 29.4945 14.5273C29.4321 14.4733 29.3563 14.4371 29.2751 14.4224C29.1938 14.4077 29.1102 14.415 29.0327 14.4436L6.62545 22.9818Z" fill="url(#paint0_linear_250_7)"/>
<path d="M52.02 15.9468C53.6232 15.9468 54.9294 16.3903 55.9385 17.2773C56.9476 18.1644 57.4521 19.32 57.4521 20.7441C57.4521 21.7126 57.1999 22.5589 56.6953 23.2832C56.1989 23.9993 55.4583 24.5649 54.4736 24.98C55.0189 25.2729 55.5031 25.6717 55.9263 26.1763C56.3494 26.6808 56.8743 27.5312 57.501 28.7275C58.5426 30.7946 59.3158 32.2188 59.8203 33H56.146C55.8937 32.6257 55.5519 32.0275 55.1206 31.2056C54.1766 29.3908 53.4849 28.1701 53.0454 27.5435C52.606 26.9087 52.1828 26.4611 51.7759 26.2007C51.369 25.9321 50.901 25.7979 50.3721 25.7979H49.1758V33H45.8799V15.9468H52.02ZM51.2754 23.2222C52.138 23.2222 52.8135 23.0065 53.3018 22.5752C53.7982 22.1439 54.0464 21.5539 54.0464 20.8052C54.0464 20.0239 53.8022 19.4421 53.314 19.0596C52.8257 18.6689 52.1299 18.4736 51.2266 18.4736H49.1758V23.2222H51.2754ZM65.7046 21.3789C67.381 21.3789 68.7075 21.916 69.6841 22.9902C70.6606 24.0645 71.1489 25.5496 71.1489 27.4458V27.8975H63.0801C63.2021 28.9147 63.5806 29.7 64.2153 30.2534C64.8582 30.7987 65.7371 31.0713 66.8521 31.0713C67.5682 31.0713 68.2559 30.9492 68.915 30.7051C69.5824 30.4528 70.27 30.0744 70.978 29.5698V31.8037C69.6434 32.7477 68.0239 33.2197 66.1196 33.2197C64.3211 33.2197 62.8522 32.6785 61.7129 31.5962C60.5736 30.5138 60.0039 29.0734 60.0039 27.2749C60.0039 25.5415 60.5288 24.1255 61.5786 23.0269C62.6366 21.9282 64.0119 21.3789 65.7046 21.3789ZM68.3291 26.0786C68.2477 25.2485 67.9954 24.6016 67.5723 24.1377C67.1491 23.6657 66.5672 23.4297 65.8267 23.4297C65.0698 23.4297 64.4595 23.6535 63.9956 24.1011C63.5399 24.5487 63.251 25.2078 63.1289 26.0786H68.3291ZM74.6162 16.3252C75.0801 16.3252 75.4788 16.492 75.8125 16.8257C76.1462 17.1593 76.313 17.5581 76.313 18.022C76.313 18.4696 76.1462 18.8683 75.8125 19.2183C75.487 19.5601 75.0882 19.731 74.6162 19.731C74.1605 19.731 73.7617 19.5601 73.4199 19.2183C73.0863 18.8683 72.9194 18.4696 72.9194 18.022C72.9194 17.55 73.0903 17.1512 73.4321 16.8257C73.7739 16.492 74.1686 16.3252 74.6162 16.3252ZM76.1177 21.5986V33H73.1147V21.5986H76.1177ZM82.417 21.3789C83.0436 21.3789 83.6336 21.4521 84.187 21.5986C84.7404 21.737 85.3263 21.9608 85.9448 22.27V24.6748C85.3752 24.3086 84.7648 24.0156 84.1138 23.7959C83.4627 23.568 82.8809 23.4541 82.3682 23.4541C81.9368 23.4541 81.5991 23.5355 81.355 23.6982C81.1108 23.861 80.9888 24.0929 80.9888 24.394C80.9888 24.5649 81.0905 24.7358 81.2939 24.9067C81.4974 25.0776 82.0549 25.391 82.9663 25.8467C84.2684 26.5059 85.1799 27.1162 85.7007 27.6777C86.2297 28.2311 86.4941 28.8984 86.4941 29.6797C86.4941 30.7783 86.1117 31.645 85.3467 32.2798C84.5817 32.9064 83.5482 33.2197 82.2461 33.2197C81.4323 33.2197 80.6714 33.1302 79.9634 32.9512C79.2635 32.7721 78.6816 32.5565 78.2178 32.3042V29.8018C79.6826 30.6156 80.9155 31.0225 81.9165 31.0225C82.4292 31.0225 82.8442 30.9329 83.1616 30.7539C83.479 30.5667 83.6377 30.3226 83.6377 30.0215C83.6377 29.8424 83.5807 29.6797 83.4668 29.5332C83.3529 29.3867 83.182 29.2362 82.9541 29.0815C82.7262 28.9269 82.0142 28.5566 80.8179 27.9707C79.8983 27.5312 79.2188 27.0552 78.7793 26.5425C78.3398 26.0216 78.1201 25.4072 78.1201 24.6992C78.1201 23.6901 78.5148 22.8844 79.3042 22.2822C80.0936 21.68 81.1312 21.3789 82.417 21.3789ZM93.4282 21.3789C95.1047 21.3789 96.4312 21.916 97.4077 22.9902C98.3843 24.0645 98.8726 25.5496 98.8726 27.4458V27.8975H90.8037C90.9258 28.9147 91.3042 29.7 91.939 30.2534C92.5819 30.7987 93.4608 31.0713 94.5757 31.0713C95.2918 31.0713 95.9795 30.9492 96.6387 30.7051C97.306 30.4528 97.9937 30.0744 98.7017 29.5698V31.8037C97.367 32.7477 95.7476 33.2197 93.8433 33.2197C92.0448 33.2197 90.5758 32.6785 89.4365 31.5962C88.2972 30.5138 87.7275 29.0734 87.7275 27.2749C87.7275 25.5415 88.2524 24.1255 89.3022 23.0269C90.3602 21.9282 91.7355 21.3789 93.4282 21.3789ZM96.0527 26.0786C95.9714 25.2485 95.7191 24.6016 95.2959 24.1377C94.8727 23.6657 94.2909 23.4297 93.5503 23.4297C92.7935 23.4297 92.1831 23.6535 91.7192 24.1011C91.2635 24.5487 90.9746 25.2078 90.8525 26.0786H96.0527Z" fill="black"/>
<path d="M103.744 15.9468V33H100.741V15.9468H103.744ZM112.02 21.5986L107.394 27.2261L112.594 33H108.785L103.792 27.2261L108.492 21.5986H112.02ZM116.305 15.9468V33H113.302V15.9468H116.305ZM123.007 21.3789C124.472 21.3789 125.591 21.6922 126.364 22.3188C127.137 22.9373 127.524 23.804 127.524 24.9189V30.4976C127.524 30.9289 127.699 31.1445 128.049 31.1445C128.195 31.1445 128.399 31.0835 128.659 30.9614C128.928 30.8312 129.152 30.6847 129.331 30.522V32.2554C128.281 32.8983 127.32 33.2197 126.45 33.2197C125.913 33.2197 125.498 33.1302 125.205 32.9512C124.92 32.7721 124.72 32.4548 124.606 31.999C123.459 32.8128 122.307 33.2197 121.152 33.2197C120.33 33.2197 119.622 32.943 119.028 32.3896C118.442 31.8363 118.149 31.173 118.149 30.3999C118.149 29.4152 118.442 28.638 119.028 28.0684C119.614 27.4987 120.639 27.0023 122.104 26.5791L124.533 25.8711V25.3462C124.533 24.2313 123.858 23.6738 122.507 23.6738C121.815 23.6738 121.127 23.8325 120.444 24.1499C119.76 24.4673 119.138 24.9352 118.576 25.5537V22.856C119.821 21.8713 121.298 21.3789 123.007 21.3789ZM121.176 29.9482C121.176 30.3633 121.306 30.6969 121.567 30.9492C121.835 31.2015 122.165 31.3276 122.556 31.3276C123.215 31.3276 123.874 31.0265 124.533 30.4243V27.4214C123.695 27.7062 123.036 27.9748 122.556 28.2271C122.084 28.4793 121.734 28.7357 121.506 28.9961C121.286 29.2565 121.176 29.5739 121.176 29.9482ZM137.009 21.3789C137.408 21.3789 137.799 21.4684 138.181 21.6475C138.572 21.8265 139.023 22.1276 139.536 22.5508L138.462 25.1753C137.591 24.5243 136.891 24.1987 136.362 24.1987C135.898 24.1987 135.439 24.3737 134.983 24.7236C134.535 25.0654 134.173 25.5212 133.896 26.0908C133.628 26.6605 133.494 27.2301 133.494 27.7998V33H130.491V21.5986H133.494V24.5039H133.542C134.088 23.4053 134.637 22.6118 135.19 22.1235C135.744 21.6271 136.35 21.3789 137.009 21.3789Z" fill="#710505"/>
<defs>
<linearGradient id="paint0_linear_250_7" x1="0" y1="24" x2="40" y2="24" gradientUnits="userSpaceOnUse">
<stop stop-color="#172554"/>
<stop offset="0.5" stop-color="#1E3A8A"/>
<stop offset="0.75" stop-color="#1E3A8A"/>
<stop offset="0.875" stop-color="#1E40AF"/>
<stop offset="0.9375" stop-color="#004889"/>
<stop offset="1" stop-color="#04418E"/>
</linearGradient>
</defs>
</svg>
