<svg width="32" height="32" viewBox="0 0 32 52" fill="none" xmlns="http://www.w3.org/2000/svg">
  <!-- Location pin icon from logo -->
  <g fill="#03075b">
    <path d="M 25.554688 28.597656 C 25.207031 29.367188 24.835938 30.09375 24.4375 30.78125 C 24.046875 32.746094 23.035156 34.839844 21.203125 36.945312 C 17.078125 41.683594 9.601562 41.84375 4.800781 39.832031 C 8.949219 46.519531 15.953125 52.003906 15.953125 52.003906 C 15.953125 52.003906 31.625 39.742188 31.625 27.203125 C 31.625 23.613281 30.414062 20.304688 28.382812 17.664062 C 27.910156 21.828125 26.957031 25.5 25.554688 28.597656 Z"/>
    <path d="M 12.316406 37.75 C 14.78125 37.683594 17.085938 36.871094 19.121094 35.359375 C 20.207031 34.554688 21.222656 33.546875 22.140625 32.347656 C 23.058594 31.144531 23.882812 29.75 24.597656 28.167969 C 26.023438 25.023438 27.015625 21.132812 27.449219 16.554688 C 27.640625 14.472656 27.722656 12.246094 27.675781 9.878906 C 27.199219 11.699219 26.671875 13.515625 26.097656 15.261719 C 25.121094 18.207031 24 20.96875 22.707031 23.28125 C 20.710938 26.867188 18.3125 29.378906 15.441406 29.839844 C 8.210938 31 7.765625 20.238281 15.492188 19.804688 C 17.855469 19.671875 20.234375 20.6875 21.972656 22.445312 C 23.074219 20.410156 24.125 17.886719 25.101562 14.933594 C 25.140625 14.8125 25.179688 14.691406 25.21875 14.570312 C 22.625 12.664062 19.421875 11.539062 15.953125 11.539062 C 7.300781 11.539062 0.285156 18.550781 0.285156 27.203125 C 0.285156 27.316406 0.285156 27.898438 0.320312 28.203125 C 1.042969 34.792969 6.183594 37.921875 12.316406 37.75 Z"/>
    <path d="M 27.820312 5.546875 L 29.0625 11.625 L 32.644531 11.832031 L 28.140625 0 L 22.308594 11.234375 L 25.890625 11.441406 Z"/>
  </g>
</svg>
