<svg width="62" height="61" viewBox="0 0 62 61" fill="none" xmlns="http://www.w3.org/2000/svg">
<path d="M30.6667 1.5C40.8918 1.5 49.1667 9.74127 49.1667 19.8896C49.1666 21.8 48.9995 23.2899 48.5534 24.7881C48.1037 26.298 47.3488 27.8903 46.0866 29.9775C43.5242 34.2145 39.1077 40.1303 31.4909 51.1113C31.1193 51.6451 30.3436 51.6788 29.9215 51.2119L29.8424 51.1113C22.2256 40.1303 17.8091 34.2145 15.2467 29.9775C13.9845 27.8903 13.2296 26.298 12.7799 24.7881C12.3338 23.2899 12.1667 21.8 12.1667 19.8896C12.1667 9.74127 20.4415 1.5 30.6667 1.5ZM30.6667 10.1025C25.2437 10.1025 20.8337 14.4764 20.8337 19.8896C20.8338 25.3027 25.2438 29.6768 30.6667 29.6768C36.0895 29.6768 40.4995 25.3027 40.4997 19.8896C40.4997 14.4764 36.0896 10.1025 30.6667 10.1025Z" stroke="#172554" stroke-width="3"/>
<path d="M20.3333 37.7845H8.73849C6.92689 37.7845 5.34146 39.002 4.87397 40.7522L1.83598 52.1261C1.03086 55.1404 3.83309 57.875 6.82681 56.9965L19.3249 53.3289C19.986 53.1349 20.6859 53.115 21.357 53.271L43.872 58.5051C45.1982 58.8134 46.5902 58.426 47.5663 57.4768L58.5079 46.8375C59.9372 45.4477 60.1249 43.2177 58.9481 41.6085L54.7498 35.8678C53.7104 34.4465 51.8639 33.8721 50.2017 34.4529L40.6667 37.7845" stroke="#172554" stroke-width="3"/>
</svg>
