<svg width="16" height="16" viewBox="0 0 16 16" fill="none" xmlns="http://www.w3.org/2000/svg">
<path fill-rule="evenodd" clip-rule="evenodd" d="M8 16C12.4182 16 16 12.4182 16 8C16 3.58182 12.4182 0 8 0C3.58182 0 0 3.58182 0 8C0 12.4182 3.58182 16 8 16ZM2.65018 7.59273C2.61574 7.60622 2.58612 7.6297 2.56512 7.66015C2.54413 7.69061 2.53272 7.72665 2.53236 7.76364C2.53236 7.83782 2.58109 7.90764 2.65018 7.93382L4.82255 8.72655L9.29818 6.416C9.32184 6.40502 9.3486 6.40265 9.37383 6.40928C9.39905 6.41592 9.42117 6.43116 9.43636 6.45236C9.45061 6.47417 9.4568 6.50027 9.45388 6.52615C9.45096 6.55204 9.43911 6.57609 9.42036 6.59418L6.408 9.296L9.78327 12.0138C9.832 12.0487 9.89745 12.0575 9.95345 12.0371C9.98137 12.0264 10.0063 12.0091 10.026 11.9867C10.0458 11.9643 10.0598 11.9374 10.0669 11.9084L11.8545 4.38982C11.8619 4.35765 11.8606 4.32409 11.8506 4.29262C11.8406 4.26116 11.8224 4.23294 11.7978 4.21091C11.7728 4.18933 11.7425 4.17485 11.71 4.16897C11.6775 4.16308 11.6441 4.16601 11.6131 4.17745L2.65018 7.59273Z" fill="url(#paint0_linear_251_4)"/>
<defs>
<linearGradient id="paint0_linear_251_4" x1="8" y1="0" x2="8" y2="16" gradientUnits="userSpaceOnUse">
<stop stop-color="#172554"/>
<stop offset="0.5" stop-color="#1E3A8A"/>
<stop offset="0.75" stop-color="#1E3A8A"/>
<stop offset="0.875" stop-color="#1E40AF"/>
<stop offset="0.9375" stop-color="#004889"/>
<stop offset="1" stop-color="#04418E"/>
</linearGradient>
</defs>
</svg>
